<svg width="24" height="24" viewBox="0 0 24 24" fill="none" xmlns="http://www.w3.org/2000/svg">
  <path
    fill-rule="evenodd"
    clip-rule="evenodd"
    d="M2.87868 5.87868C2 6.75736 2 8.17157 2 11V13C2 15.8284 2 17.2426 2.87868 18.1213C3.75736 19 5.17157 19 8 19H16C18.8284 19 20.2426 19 21.1213 18.1213C22 17.2426 22 15.8284 22 13V11C22 8.17157 22 6.75736 21.1213 5.87868C20.2426 5 18.8284 5 16 5H8C5.17157 5 3.75736 5 2.87868 5.87868Z"
    fill="#F93939"
  />
  <path
    fill-rule="evenodd"
    clip-rule="evenodd"
    d="M8.00001 19H8.00001H16C18.8284 19 20.2427 19 21.1213 18.1213C21.7626 17.48 21.9359 16.5534 21.9827 15H2.01733C2.06414 16.5534 2.23739 17.48 2.87869 18.1213C3.75737 19 5.17158 19 8.00001 19Z"
    fill="#00B731"
  />
  <path
    fill-rule="evenodd"
    clip-rule="evenodd"
    d="M16 5H8.00001C5.17158 5 3.75737 5 2.87869 5.87868C2.23739 6.51998 2.06414 7.44655 2.01733 9H21.9827C21.9359 7.44655 21.7626 6.51998 21.1213 5.87868C20.2427 5 18.8284 5 16 5Z"
    fill="#03BCDB"
  />
  <path
    fill-rule="evenodd"
    clip-rule="evenodd"
    d="M2 10H22V14H2L2 10ZM6.7619 8.59111C6.61333 8.64 6.45238 8.66667 6.28571 8.66667C5.49714 8.66667 4.85714 8.06933 4.85714 7.33333C4.85714 6.59733 5.49714 6 6.28571 6C6.45238 6 6.61333 6.02667 6.7619 6.07556C6.20667 6.25867 5.80952 6.75289 5.80952 7.33333C5.80952 7.91378 6.20667 8.40889 6.7619 8.59111Z"
    fill="white"
  />
</svg>
